<svg xmlns="http://www.w3.org/2000/svg" viewBox="0 0 24 24" width="18" height="18" fill="currentColor" aria-hidden="true"><path d="M12 10.8c-1.087-2.114-4.046-6.053-6.798-7.995C2.566.944 1.561 1.266.902 1.565.139 1.908 0 3.08 0 3.768c0 .69.378 5.65.624 6.479.785 2.627 3.6 3.476 6.158 3.126-4.09.665-7.725 2.576-4.16 8.51 3.482 5.204 5.624-.44 6.378-2.81.247-.77.36-1.068.36-1.068l.36 1.068c.754 2.37 2.896 8.014 6.378 2.81 3.565-5.934-.07-7.845-4.16-8.51 2.558.35 5.373-.499 6.158-3.126C18.622 9.418 19 4.458 19 3.768c0-.69-.139-1.86-.902-2.203-.659-.299-1.664-.621-4.3 1.24C11.046 4.747 8.087 8.686 7 10.8h5z"/></svg>
